# xmcd CD database file
#
# Track frame offsets:
#	150
#	25440
#	49632
#	76977
#	97986
#	120236
#	133743
#	146814
#	162279
#	184119
#	216775
#	240719
#	262764
#	285434
#
# Disc length: 4056 seconds
#
# Revision: 0
# Processed by: cddbd v1.5.2PL0 Copyright (c) Steve Scherf et al.
# Submitted via: CDex 1.51
#
DISCID=bb0fd60e
DTITLE=So Jazz! - La nouvelle vague 2
DYEAR=2011
DGENRE=Jazz
TTITLE0=So Long - Chihiro Yamanaka
TTITLE1=Seven Seas - Avisha Cohen
TTITLE2=Sacred - Nailah Porter 
TTITLE3=Canal Street - Nilson Matt and Roni Ben-Hur
TTITLE4=Black Nile - Gregory Porter
TTITLE5=The Spinners - Tigran Hamasyan
TTITLE6=Flip - Owen Howard 
TTITLE7=Guarija - Harold Lopez Nussa Trio
TTITLE8=Spain - Kora Jazz Band 
TTITLE9=Wetu - Brian Lynch 
TTITLE10=Edda - Laurent Fickelson
TTITLE11=Tuulte Je Merede Laps -Ingrid Lukas
TTITLE12=Boston+Blues - Lisa Hilton
TTITLE13=Sunset Boulevard - Stephan Oliva
EXTD=YEAR: 2011
EXTT0=
EXTT1=
EXTT2=
EXTT3=
EXTT4=
EXTT5=
EXTT6=
EXTT7=
EXTT8=
EXTT9=
EXTT10=
EXTT11=
EXTT12=
EXTT13=
PLAYORDER=
